<svg width="168" height="55" viewBox="0 0 168 55" fill="none" xmlns="http://www.w3.org/2000/svg">
<rect x="1" y="1" width="166" height="53" rx="7.06005" fill="white" stroke="#DEDEDE" stroke-width="0.882507"/>
<path d="M65.7398 40.2537L64.2167 36.3385H58.0057L56.5222 40.2537H54.4453L60.0233 26.2341H62.2585L67.8365 40.2537H65.7398ZM61.0915 28.251L58.6981 34.5391H63.5244L61.0915 28.251ZM71.3649 44.0107H69.5254V30.7425H71.3253V32.2256C71.6023 31.7246 72.0177 31.316 72.5715 30.9996C73.1254 30.6832 73.7715 30.525 74.51 30.525C75.8814 30.525 76.9495 30.993 77.7144 31.929C78.4924 32.8649 78.8814 34.0513 78.8814 35.4882C78.8814 36.9383 78.4792 38.1379 77.6748 39.0871C76.8836 40.0362 75.8089 40.5108 74.4506 40.5108C73.7517 40.5108 73.1319 40.3658 72.5913 40.0757C72.0506 39.7857 71.6418 39.4166 71.3649 38.9684V44.0107ZM76.9825 35.4882C76.9825 34.5259 76.7253 33.735 76.2111 33.1154C75.71 32.4826 75.0308 32.1662 74.1737 32.1662C73.3297 32.1662 72.644 32.4826 72.1166 33.1154C71.6023 33.735 71.3451 34.5259 71.3451 35.4882C71.3451 36.4769 71.6023 37.2876 72.1166 37.9204C72.644 38.54 73.3297 38.8498 74.1737 38.8498C75.0177 38.8498 75.6968 38.54 76.2111 37.9204C76.7253 37.2876 76.9825 36.4769 76.9825 35.4882ZM83.0901 44.0107H81.2506V30.7425H83.0506V32.2256C83.3275 31.7246 83.7429 31.316 84.2967 30.9996C84.8506 30.6832 85.4967 30.525 86.2352 30.525C87.6066 30.525 88.6747 30.993 89.4396 31.929C90.2176 32.8649 90.6066 34.0513 90.6066 35.4882C90.6066 36.9383 90.2044 38.1379 89.4 39.0871C88.6088 40.0362 87.5341 40.5108 86.1758 40.5108C85.4769 40.5108 84.8572 40.3658 84.3165 40.0757C83.7759 39.7857 83.3671 39.4166 83.0901 38.9684V44.0107ZM88.7077 35.4882C88.7077 34.5259 88.4506 33.735 87.9363 33.1154C87.4352 32.4826 86.7561 32.1662 85.8989 32.1662C85.055 32.1662 84.3693 32.4826 83.8418 33.1154C83.3275 33.735 83.0704 34.5259 83.0704 35.4882C83.0704 36.4769 83.3275 37.2876 83.8418 37.9204C84.3693 38.54 85.055 38.8498 85.8989 38.8498C86.7429 38.8498 87.422 38.54 87.9363 37.9204C88.4506 37.2876 88.7077 36.4769 88.7077 35.4882ZM107.06 29.4177L105.319 30.0307C105.227 29.4243 104.93 28.8772 104.429 28.3894C103.928 27.8885 103.236 27.638 102.352 27.638C101.574 27.638 100.928 27.8621 100.414 28.3104C99.8988 28.7586 99.6416 29.3122 99.6416 29.9713C99.6416 30.4855 99.7933 30.9205 100.097 31.2764C100.414 31.6323 100.862 31.8762 101.442 32.008L103.539 32.4628C104.699 32.7133 105.596 33.1879 106.229 33.8866C106.862 34.572 107.178 35.4091 107.178 36.3978C107.178 37.5315 106.73 38.507 105.833 39.3243C104.937 40.1417 103.77 40.5503 102.332 40.5503C100.763 40.5503 99.5295 40.1417 98.6328 39.3243C97.7493 38.4938 97.235 37.5117 97.09 36.378L98.9493 35.7848C99.0285 36.6285 99.3581 37.3404 99.9383 37.9204C100.519 38.5004 101.31 38.7905 102.312 38.7905C103.236 38.7905 103.948 38.5795 104.449 38.1577C104.95 37.7358 105.2 37.202 105.2 36.556C105.2 36.0287 105.022 35.5739 104.666 35.1916C104.31 34.7961 103.789 34.5259 103.104 34.3809L101.106 33.9459C100.064 33.7218 99.2328 33.2802 98.6131 32.621C97.9933 31.9619 97.6834 31.1248 97.6834 30.1098C97.6834 29.0024 98.1318 28.0335 99.0285 27.203C99.9383 26.3593 101.033 25.9375 102.312 25.9375C103.75 25.9375 104.851 26.2868 105.616 26.9855C106.381 27.6842 106.862 28.4949 107.06 29.4177ZM111.945 27.7369V30.7425H114.003V32.4233H111.945V37.3667C111.945 37.8149 112.044 38.1445 112.242 38.3554C112.453 38.5663 112.796 38.6718 113.271 38.6718C113.548 38.6718 113.792 38.6454 114.003 38.5927V40.1746C113.686 40.2933 113.264 40.3526 112.737 40.3526C111.919 40.3526 111.273 40.1153 110.798 39.6407C110.323 39.1662 110.086 38.5004 110.086 37.6436V32.4233H108.266V30.7425H108.781C109.268 30.7425 109.631 30.6107 109.868 30.3471C110.119 30.0702 110.244 29.7143 110.244 29.2793V27.7369H111.945ZM118.346 37.9995C118.926 38.5927 119.631 38.8893 120.462 38.8893C121.293 38.8893 121.992 38.5927 122.559 37.9995C123.139 37.3931 123.429 36.556 123.429 35.4882C123.429 34.4336 123.139 33.6097 122.559 33.0165C121.992 32.4101 121.293 32.1069 120.462 32.1069C119.631 32.1069 118.926 32.4101 118.346 33.0165C117.779 33.6097 117.495 34.4336 117.495 35.4882C117.495 36.556 117.779 37.3931 118.346 37.9995ZM116.961 31.8894C117.884 30.9271 119.051 30.4459 120.462 30.4459C121.873 30.4459 123.034 30.9271 123.943 31.8894C124.867 32.8385 125.328 34.0382 125.328 35.4882C125.328 36.9515 124.873 38.1643 123.963 39.1266C123.053 40.0757 121.886 40.5503 120.462 40.5503C119.038 40.5503 117.871 40.0757 116.961 39.1266C116.051 38.1643 115.596 36.9515 115.596 35.4882C115.596 34.0382 116.051 32.8385 116.961 31.8894ZM132.989 30.6437V32.621C132.712 32.5815 132.441 32.5617 132.178 32.5617C130.437 32.5617 129.567 33.5372 129.567 35.4882V40.2537H127.707V30.7425H129.527V32.4035C130.107 31.1907 131.057 30.5843 132.376 30.5843C132.586 30.5843 132.791 30.6041 132.989 30.6437ZM136.08 34.5193H141.282C141.256 33.8075 141.019 33.2274 140.57 32.7792C140.122 32.3178 139.489 32.0871 138.671 32.0871C137.933 32.0871 137.326 32.331 136.851 32.8188C136.377 33.2933 136.12 33.8602 136.08 34.5193ZM141.559 36.991L143.161 37.5447C142.884 38.4279 142.37 39.153 141.619 39.7198C140.867 40.2735 139.957 40.5503 138.889 40.5503C137.557 40.5503 136.423 40.0955 135.487 39.1859C134.564 38.2632 134.102 37.024 134.102 35.4685C134.102 34.0184 134.55 32.8188 135.447 31.8696C136.344 30.9205 137.412 30.4459 138.651 30.4459C140.089 30.4459 141.21 30.9007 142.014 31.8103C142.819 32.7067 143.221 33.9129 143.221 35.4289C143.221 35.6662 143.208 35.8639 143.181 36.0221H136.021C136.034 36.8658 136.311 37.5579 136.851 38.0984C137.405 38.6389 138.084 38.9091 138.889 38.9091C140.247 38.9091 141.137 38.2697 141.559 36.991Z" fill="black"/>
<path opacity="0.6" d="M55.8973 17.6297V14.2173H56.7337C57.6078 14.2173 58.3312 14.7672 58.3312 15.9273C58.3312 17.0874 57.6003 17.6297 56.7262 17.6297H55.8973ZM56.7639 18.5939C58.286 18.5939 59.4087 17.6147 59.4087 15.9273C59.4087 14.2399 58.2935 13.2531 56.7714 13.2531H54.8574V18.5939H56.7639ZM62.0132 15.9198C62.0132 14.7145 62.8572 14.142 63.6785 14.142C64.5074 14.142 65.3514 14.7145 65.3514 15.9198C65.3514 17.125 64.5074 17.6975 63.6785 17.6975C62.8572 17.6975 62.0132 17.125 62.0132 15.9198ZM60.9357 15.9273C60.9357 17.6448 62.2318 18.7069 63.6785 18.7069C65.1329 18.7069 66.4289 17.6448 66.4289 15.9273C66.4289 14.2023 65.1329 13.1401 63.6785 13.1401C62.2318 13.1401 60.9357 14.2023 60.9357 15.9273ZM73.1067 16.9442L71.9161 13.2531H70.8386L69.6556 16.9292L68.676 13.2531H67.5758L69.0603 18.5939H70.1453L71.3661 14.7898L72.5868 18.5939H73.6568L75.1337 13.2531H74.0712L73.1067 16.9442ZM81.3378 18.5939V13.2531H80.2979V16.786L78.075 13.2531H76.779V18.5939H77.8188V14.8049L80.2452 18.5939H81.3378ZM86.9186 18.5939V17.5996H84.5374V13.2531H83.4975V18.5939H86.9186ZM89.2404 15.9198C89.2404 14.7145 90.0843 14.142 90.9057 14.142C91.7346 14.142 92.5785 14.7145 92.5785 15.9198C92.5785 17.125 91.7346 17.6975 90.9057 17.6975C90.0843 17.6975 89.2404 17.125 89.2404 15.9198ZM88.1628 15.9273C88.1628 17.6448 89.4589 18.7069 90.9057 18.7069C92.36 18.7069 93.6561 17.6448 93.6561 15.9273C93.6561 14.2023 92.36 13.1401 90.9057 13.1401C89.4589 13.1401 88.1628 14.2023 88.1628 15.9273ZM98.8665 18.5939H99.9968L97.9622 13.2531H96.7566L94.707 18.5939H95.8071L96.2517 17.3736H98.4219L98.8665 18.5939ZM97.3368 14.4057L98.0752 16.4245H96.5983L97.3368 14.4057ZM102.661 17.6297V14.2173H103.498C104.372 14.2173 105.095 14.7672 105.095 15.9273C105.095 17.0874 104.364 17.6297 103.49 17.6297H102.661ZM103.528 18.5939C105.05 18.5939 106.173 17.6147 106.173 15.9273C106.173 14.2399 105.058 13.2531 103.536 13.2531H101.622V18.5939H103.528ZM111.581 15.9198C111.581 14.7145 112.425 14.142 113.247 14.142C114.076 14.142 114.919 14.7145 114.919 15.9198C114.919 17.125 114.076 17.6975 113.247 17.6975C112.425 17.6975 111.581 17.125 111.581 15.9198ZM110.504 15.9273C110.504 17.6448 111.8 18.7069 113.247 18.7069C114.701 18.7069 115.997 17.6448 115.997 15.9273C115.997 14.2023 114.701 13.1401 113.247 13.1401C111.8 13.1401 110.504 14.2023 110.504 15.9273ZM122.399 18.5939V13.2531H121.359V16.786L119.136 13.2531H117.84V18.5939H118.88V14.8049L121.307 18.5939H122.399ZM131.297 14.2399V13.2531H126.873V14.2399H128.561V18.5939H129.609V14.2399H131.297ZM137.386 18.5939V13.2531H136.339V15.4H134.01V13.2531H132.97V18.5939H134.01V16.3793H136.339V18.5939H137.386ZM142.894 18.5939V17.6147H140.589V16.3793H142.676V15.4527H140.589V14.2324H142.894V13.2531H139.549V18.5939H142.894Z" fill="black"/>
<path d="M41.8852 34.6171C41.2735 35.9712 40.9815 36.5756 40.1939 37.772C39.0966 39.4428 37.5483 41.5238 35.6297 41.5414C33.9255 41.5573 33.4875 40.4326 31.1739 40.4462C28.8603 40.4597 28.3782 41.5614 26.6739 41.5455C24.7553 41.5285 23.2895 39.6493 22.1909 37.9774C19.1203 33.3047 18.7995 27.8216 20.6933 24.9067C22.0391 22.834 24.1631 21.6229 26.1594 21.6229C28.1921 21.6229 29.4702 22.7369 31.1515 22.7369C32.7822 22.7369 33.7753 21.6211 36.126 21.6211C37.9027 21.6211 39.7853 22.588 41.127 24.2587C36.7312 26.6663 37.4459 32.9392 41.8852 34.6171Z" fill="black"/>
<path d="M34.5898 18.7006C35.4439 17.6048 36.0914 16.0589 35.856 14.4775C34.4608 14.5729 32.8301 15.4604 31.8776 16.6168C31.0128 17.6661 30.2987 19.2227 30.5765 20.7357C32.0984 20.7834 33.6743 19.8741 34.5898 18.7006Z" fill="black"/>
</svg>
