<svg width="28" height="28" viewBox="0 0 28 28" fill="none" xmlns="http://www.w3.org/2000/svg">
<path d="M13.9999 5.83325H24.9666C25.3532 5.83325 25.6666 6.14665 25.6666 6.53325V21.4666C25.6666 21.8532 25.3532 22.1666 24.9666 22.1666H13.9999M13.9999 5.83325H3.03325C2.64665 5.83325 2.33325 6.14665 2.33325 6.53325V21.4666C2.33325 21.8532 2.64665 22.1666 3.03325 22.1666H13.9999M13.9999 5.83325V22.1666" stroke="white" stroke-width="1.75"/>
<path d="M14 17.5C12.0669 17.5 10.5 15.933 10.5 14C10.5 12.0669 12.0669 10.5 14 10.5C15.933 10.5 17.5 12.0669 17.5 14C17.5 15.933 15.933 17.5 14 17.5Z" stroke="white" stroke-width="1.75" stroke-linecap="round" stroke-linejoin="round"/>
<path d="M2.33325 19.8334C5.55491 19.8334 8.16659 17.2217 8.16659 14.0001C8.16659 10.7784 5.55491 8.16675 2.33325 8.16675" stroke="white" stroke-width="1.75" stroke-linecap="round" stroke-linejoin="round"/>
<path d="M25.6666 19.8334C22.445 19.8334 19.8333 17.2217 19.8333 14.0001C19.8333 10.7784 22.445 8.16675 25.6666 8.16675" stroke="white" stroke-width="1.75" stroke-linecap="round" stroke-linejoin="round"/>
</svg>
