<svg width="28" height="28" viewBox="0 0 28 28" fill="none" xmlns="http://www.w3.org/2000/svg">
<path d="M8.16675 21V19.8333C8.16675 16.6117 10.7784 14 14.0001 14C17.2217 14 19.8334 16.6117 19.8334 19.8333V21" stroke="white" stroke-width="1.75" stroke-linecap="round" stroke-linejoin="round"/>
<path d="M1.16675 20.9999V19.8333C1.16675 17.9002 2.73376 16.3333 4.66675 16.3333" stroke="white" stroke-width="1.75" stroke-linecap="round" stroke-linejoin="round"/>
<path d="M26.8333 20.9999V19.8333C26.8333 17.9002 25.2663 16.3333 23.3333 16.3333" stroke="white" stroke-width="1.75" stroke-linecap="round" stroke-linejoin="round"/>
<path d="M14 14C15.933 14 17.5 12.433 17.5 10.5C17.5 8.56701 15.933 7 14 7C12.0669 7 10.5 8.56701 10.5 10.5C10.5 12.433 12.0669 14 14 14Z" stroke="white" stroke-width="1.75" stroke-linecap="round" stroke-linejoin="round"/>
<path d="M4.66659 16.3334C5.95525 16.3334 6.99992 15.2888 6.99992 14.0001C6.99992 12.7114 5.95525 11.6667 4.66659 11.6667C3.37792 11.6667 2.33325 12.7114 2.33325 14.0001C2.33325 15.2888 3.37792 16.3334 4.66659 16.3334Z" stroke="white" stroke-width="1.75" stroke-linecap="round" stroke-linejoin="round"/>
<path d="M23.3333 16.3334C24.622 16.3334 25.6667 15.2888 25.6667 14.0001C25.6667 12.7114 24.622 11.6667 23.3333 11.6667C22.0446 11.6667 21 12.7114 21 14.0001C21 15.2888 22.0446 16.3334 23.3333 16.3334Z" stroke="white" stroke-width="1.75" stroke-linecap="round" stroke-linejoin="round"/>
</svg>
