<svg width="28" height="28" viewBox="0 0 28 28" fill="none" xmlns="http://www.w3.org/2000/svg">
<path d="M13.9999 9.33325L18.4383 12.5578M13.9999 9.33325L9.56169 12.5578M13.9999 9.33325V5.83325M18.4383 12.5578L16.743 17.7754M18.4383 12.5578L21.5833 11.0833M9.56169 12.5578L11.257 17.7754M9.56169 12.5578L6.41659 11.0833M13.9999 5.83325L10.0616 3.01469M13.9999 5.83325L17.9382 3.01469M16.743 17.7754H11.257M16.743 17.7754L18.6666 20.4166M21.5833 11.0833L25.609 15.1666M21.5833 11.0833L22.7499 6.28293M11.257 17.7754L9.33325 20.4166M18.6666 20.4166L24.1058 19.8333M18.6666 20.4166L15.7499 25.5363M9.33325 20.4166L3.89404 19.8333M9.33325 20.4166L12.2499 25.5363M6.41659 11.0833L2.39086 15.1666M6.41659 11.0833L5.24992 6.28293M25.6666 13.9999C25.6666 20.4432 20.4432 25.6666 13.9999 25.6666C7.55659 25.6666 2.33325 20.4432 2.33325 13.9999C2.33325 7.55659 7.55659 2.33325 13.9999 2.33325C20.4432 2.33325 25.6666 7.55659 25.6666 13.9999Z" stroke="white" stroke-width="1.75" stroke-linecap="round" stroke-linejoin="round"/>
</svg>
